# xmcd
#
# Track frame offsets:
#	150
#	13470
#	25604
#	39480
#	57160
#	69739
#	82915
#	95212
#	108707
#	120897
#	134290
#	147319
#	159469
#	171592
#	191114
#	203584
#	217361
#	228966
#	240813
#	254249
#	264666
#	277825
#
# Disc length: 3838 seconds
# Revision: 2
# Processed by: cddbd v1.5.2PL0 Copyright (c) Steve Scherf et al.
# Submitted via: dBpowerAMP V12.0
#
DISCID=460efc16
DTITLE=BD Blues - 09 Howlin' Wolf CD1 Memphis 1951-1953
DYEAR=2007
DGENRE=Blues
TTITLE0=Moanin' At Midnight
TTITLE1=How Many More Yaears
TTITLE2=Riding In The Moonlight
TTITLE3=Crying At Daybreak
TTITLE4=I Want Your Picture
TTITLE5=My Baby Stole Off
TTITLE6=Passing By Blues
TTITLE7=The Wolf Is At Your Door (Howlin' for my Baby)
TTITLE8=Howlin' Wolf Boogie
TTITLE9=California Blues
TTITLE10=Mr Highmay Man
TTITLE11=Getting Old And Gray
TTITLE12=The Sun Is Rising
TTITLE13=House Rockin' Boogie (House Rockers)
TTITLE14=Dorothy Mae
TTITLE15=Everybody's In The Mood
TTITLE16=Saddle My Pony
TTITLE17=Oh Red!
TTITLE18=My Last affair
TTITLE19=All Night Boogie
TTITLE20=Just My Kind
TTITLE21=Work For Your Money
EXTD=
EXTT0=
EXTT1=
EXTT2=
EXTT3=
EXTT4=
EXTT5=
EXTT6=
EXTT7=
EXTT8=
EXTT9=
EXTT10=
EXTT11=
EXTT12=
EXTT13=
EXTT14=
EXTT15=
EXTT16=
EXTT17=
EXTT18=
EXTT19=
EXTT20=
EXTT21=
PLAYORDER=
